<svg xmlns="http://www.w3.org/2000/svg" fill="none" viewBox="-0.5 -0.5 48 48" id="Troll-Face-Hand-Drawn--Streamline-Memes.svg" height="48" width="48"><desc>Troll Face Hand Drawn Streamline Element: https://streamlinehq.com</desc><path fill="#000000" fill-rule="evenodd" d="M15.45501 34.43361c5.997199999999999 2.90178 11.413479999999998 4.8363 17.991130000000002 4.25632 2.90178 -0.19363999999999998 5.60992 -0.77409 7.738079999999999 -2.7086099999999997 0.19316999999999998 -0.19316999999999998 0 -0.5799799999999999 -0.38680999999999993 -0.38680999999999993 -3.28906 2.90178 -10.44669 2.7081399999999998 -14.702539999999999 1.74088 -3.4827 -0.5799799999999999 -7.54491 -2.12769 -10.44669 -3.48176 -0.38680999999999993 0 -0.58045 0.38680999999999993 -0.19316999999999998 0.5799799999999999Z" clip-rule="evenodd" stroke-width="1"></path><path fill="#000000" fill-rule="evenodd" d="M22.61264 25.340989999999998c10.059409999999998 3.09542 15.862969999999997 -0.19316999999999998 17.991130000000002 -5.02947 0.5799799999999999 2.90178 1.74088 8.70534 0 11.413479999999998 -1.74135 2.90178 -6.77082 3.4827 -10.059409999999998 3.4827 1.9345199999999998 0 2.7081399999999998 -0.38727999999999996 4.449019999999999 -0.77409 1.9345199999999998 -0.38727999999999996 4.062679999999999 -0.77409 5.4167499999999995 -2.51497 0.9672599999999999 -1.3540699999999999 0.77409 -1.54771 0.9672599999999999 -2.12816C33.44567 34.0468 19.9045 33.65952 13.9073 25.7278c-0.38727999999999996 -0.5799799999999999 9.28579 6.19084 20.69927 3.28906 1.1609 -0.38680999999999993 6.19037 -0.9672599999999999 6.77082 -2.90178 0 -1.9345199999999998 -0.19363999999999998 -3.6754 -0.7736199999999999 -5.4167499999999995 -2.3218 4.64266 -8.5117 7.738079999999999 -17.9916 4.64266Zm-12.76802 -1.9345199999999998 0.58045 0.58045c-0.19363999999999998 0.58045 0.19363999999999998 1.1609 0.38680999999999993 1.74088 -0.58045 -1.1609 -0.7736199999999999 -1.74088 -0.9672599999999999 -2.32133Zm-0.19363999999999998 -0.9672599999999999c0 -0.38680999999999993 -0.19316999999999998 -0.9672599999999999 -0.19316999999999998 -1.3536 0 -0.19363999999999998 -0.19363999999999998 -0.77409 -0.19363999999999998 -0.77409 0.58045 -0.38727999999999996 2.3218 0.58045 -0.19316999999999998 -0.58045 0 0.7736199999999999 0.19316999999999998 1.74088 0.5799799999999999 2.7081399999999998Z" clip-rule="evenodd" stroke-width="1"></path><path fill="#000000" fill-rule="evenodd" d="M34.11353999999999 14.97702c0.32758999999999994 1.30989 0 1.47392 -0.9822999999999998 1.6374799999999998 -0.49162 0.16402999999999998 -0.81921 0.32758999999999994 -0.98277 -0.32758999999999994 -0.32758999999999994 -0.8187399999999999 0.16355999999999998 -0.9822999999999998 0.9822999999999998 -1.1467999999999998 1.1467999999999998 -0.16355999999999998 1.1467999999999998 0.16449999999999998 0.98277 -0.16355999999999998Z" clip-rule="evenodd" stroke-width="1"></path><path fill="#000000" fill-rule="evenodd" d="M40.79741 20.311519999999998c0 -0.19316999999999998 -0.38727999999999996 -0.19316999999999998 -0.38727999999999996 0 -1.9345199999999998 3.8690399999999996 -6.38401 6.19084 -10.446219999999999 5.997199999999999 -11.02714 -0.38680999999999993 -21.47336 -9.092149999999998 -21.27972 -6.77082 0 1.54771 0.5799799999999999 2.7081399999999998 0.9672599999999999 4.062679999999999 2.90178 8.5117 11.21984 12.1871 20.118819999999996 12.1871 3.8690399999999996 0 9.28579 -0.5799799999999999 11.22031 -3.6754 1.54771 -2.90178 0.38680999999999993 -8.70534 -0.19316999999999998 -11.80076Zm-0.38727999999999996 0.77409c0.58045 2.90178 1.35454 8.124889999999999 -0.19316999999999998 10.63986 -3.6754 5.80356 -28.43782 5.60992 -30.759149999999995 -11.60712C16.22863 23.2133 22.419 26.695529999999998 29.77027 26.8887c4.25632 0.19316999999999998 8.70534 -2.12816 10.63986 -5.80356Z" clip-rule="evenodd" stroke-width="1"></path><path fill="#000000" fill-rule="evenodd" d="M42.53829 9.478019999999999C37.701989999999995 4.0612699999999995 32.47841 6.1899 22.419 4.44808c-2.7081399999999998 -0.38680999999999993 -5.60992 -1.93405 -8.5117 -0.7736199999999999 -3.6754 1.54771 -5.80356 5.4167499999999995 -7.93172 8.5117 -0.9672599999999999 1.35454 -2.3218 1.93499 -3.4822299999999995 3.09542 -2.3218 2.3218 -3.2885899999999997 6.19084 -1.74088 9.09262 1.1609 2.12769 3.2885899999999997 2.7081399999999998 4.64266 4.44949 1.54771 1.93405 2.5144999999999995 4.06221 4.643129999999999 5.80356 1.74088 1.3536 3.6754 2.32133 5.60992 3.48176 4.062679999999999 2.3218 8.31853 3.4827 12.961659999999998 4.44949 2.90178 0.58045 5.60992 1.35454 8.5117 1.1609 2.7081399999999998 -0.19363999999999998 5.997199999999999 -2.3218 7.54444 -4.44949 1.1609 -1.3540699999999999 -1.3536 -11.413479999999998 -0.38680999999999993 -13.92845 0.77409 -1.9345199999999998 2.51497 -3.4827 2.7086099999999997 -5.61039 0.19316999999999998 -2.5144999999999995 -1.9345199999999998 -3.6754 -2.90178 -5.4167499999999995 -0.58045 -1.1609 -0.38680999999999993 -2.7081399999999998 -0.9672599999999999 -4.06221 -0.19363999999999998 -0.19363999999999998 -0.58045 -0.19363999999999998 -0.38727999999999996 0.19316999999999998 0.58045 1.3540699999999999 0.19363999999999998 2.7086099999999997 0.77409 4.062679999999999 0.9672599999999999 1.9345199999999998 3.09495 2.90178 2.90178 5.223109999999999 -0.19363999999999998 2.12816 -1.9345199999999998 3.6754 -2.7086099999999997 5.4167499999999995 -1.1609 2.5144999999999995 1.1609 12.76802 0.38727999999999996 13.73528 -1.74135 1.9345199999999998 -4.643129999999999 3.8690399999999996 -7.1581 4.06221 -2.7081399999999998 0.19363999999999998 -5.60992 -0.5799799999999999 -8.31806 -1.1609 -4.44949 -0.9667899999999999 -8.70581 -2.12769 -12.57485 -4.449019999999999 -7.54444 -4.44949 -5.4167499999999995 -2.7086099999999997 -10.059409999999998 -8.89898 -1.3540699999999999 -1.74088 -3.4822299999999995 -2.5144999999999995 -4.44949 -4.44949 -1.3540699999999999 -2.5144999999999995 -0.38680999999999993 -6.1899 1.74088 -8.124889999999999 1.1609 -1.1609 2.51497 -1.74088 3.4827 -3.09495 2.12769 -3.09542 4.06221 -6.77129 7.54444 -8.318999999999999 3.2885899999999997 -1.3536 3.8690399999999996 0.96773 16.25025 1.54771 4.64266 0.19363999999999998 8.5117 0.38727999999999996 11.60712 3.8690399999999996 0.19316999999999998 0.19363999999999998 0.5799799999999999 -0.19316999999999998 0.38680999999999993 -0.38680999999999993Z" clip-rule="evenodd" stroke-width="1"></path><path fill="#000000" fill-rule="evenodd" d="M13.32685 13.5407c2.90178 -2.3218 5.80356 -3.4827 9.479429999999999 -3.09542 0.5799799999999999 0 0.9667899999999999 0 1.3536 1.5472399999999997 0.58092 1.93499 0.38727999999999996 2.9022499999999996 0.77409 2.7086099999999997 0.19363999999999998 0 0.19363999999999998 -0.19363999999999998 0.19363999999999998 -0.19363999999999998 -0.38680999999999993 -1.74088 0 -4.25585 -2.12816 -4.64266 -0.58045 -0.19363999999999998 -2.90178 -0.19363999999999998 -4.64266 0.19316999999999998 -2.12816 0.58045 -3.8690399999999996 1.74135 -5.61039 3.28906 0 0 0.38680999999999993 0.38680999999999993 0.58045 0.19316999999999998Z" clip-rule="evenodd" stroke-width="1"></path><path fill="#000000" fill-rule="evenodd" d="M30.543889999999998 14.8943c0.19363999999999998 -0.19316999999999998 0.19363999999999998 -0.5799799999999999 0.38680999999999993 -1.1604299999999999 0.19363999999999998 -0.58045 0.19363999999999998 -1.1609 0.38727999999999996 -1.54771 0.19316999999999998 -0.19363999999999998 -0.19363999999999998 -0.58045 -0.38727999999999996 -0.19363999999999998 -0.7736199999999999 0.9672599999999999 -0.7736199999999999 1.74135 -0.7736199999999999 2.9022499999999996 0 0.19316999999999998 0.38680999999999993 0.19316999999999998 0.38680999999999993 0Z" clip-rule="evenodd" stroke-width="1"></path><path fill="#000000" fill-rule="evenodd" d="M30.350719999999995 11.02573c1.9345199999999998 -0.38727999999999996 5.02947 -0.19363999999999998 6.38354 1.3536 0.58045 0.77409 0.96773 1.74135 1.1609 2.7086099999999997 0 0.38680999999999993 0.58045 0.19363999999999998 0.38680999999999993 0 -0.38680999999999993 -2.5144999999999995 -1.1609 -4.06221 -3.6754 -4.64266 -1.54771 -0.38680999999999993 -2.90178 -0.19363999999999998 -4.44949 0.38680999999999993 -0.19363999999999998 -0.19363999999999998 -0.19363999999999998 0.19363999999999998 0.19363999999999998 0.19363999999999998Z" clip-rule="evenodd" stroke-width="1"></path><path fill="#000000" fill-rule="evenodd" d="M11.005519999999999 11.41301c1.54771 -1.74135 4.8363 -4.25632 6.964459999999999 -4.25632 2.12769 0 3.6754 1.74135 7.54444 1.54771 3.8690399999999996 -0.19316999999999998 7.738079999999999 -1.9345199999999998 11.41395 0.19363999999999998 0.19316999999999998 0.19363999999999998 0.5799799999999999 -0.19363999999999998 0.19316999999999998 -0.38680999999999993 -5.223109999999999 -3.09542 -9.86624 0.7736199999999999 -15.476159999999998 -1.1609 -3.2885899999999997 -1.1609 -4.44949 -2.12769 -8.89898 1.54771 -0.7736199999999999 0.58045 -1.54771 1.3540699999999999 -2.32133 2.32133 0 0 0.38680999999999993 0.38680999999999993 0.58045 0.19363999999999998Z" clip-rule="evenodd" stroke-width="1"></path><path fill="#000000" fill-rule="evenodd" d="M13.520019999999999 11.2189c1.54771 -1.1609 4.25585 -2.90178 6.19084 -2.5144999999999995 0.38680999999999993 0 0.38680999999999993 -0.38727999999999996 0 -0.38727999999999996 -2.51497 -0.7736199999999999 -4.8363 0.77409 -6.577649999999999 2.7086099999999997 -0.19363999999999998 0 0.19363999999999998 0.38680999999999993 0.38680999999999993 0.19316999999999998Z" clip-rule="evenodd" stroke-width="1"></path><path fill="#000000" fill-rule="evenodd" d="M25.70759 9.67166c3.09542 0.9672599999999999 6.19084 -0.58045 9.09262 -0.58045 2.90178 0 3.2885899999999997 1.74135 3.6754 1.1609l0 -0.38680999999999993c-3.6754 -3.6754 -9.092149999999998 0 -12.57438 -0.77409 -0.38680999999999993 0.19363999999999998 -0.58045 0.58045 -0.19363999999999998 0.58045Z" clip-rule="evenodd" stroke-width="1"></path><path fill="#000000" fill-rule="evenodd" d="M30.15708 16.635650000000002c0 1.1609 -0.19363999999999998 2.3218 0.58045 3.4827 0.38680999999999993 0.5799799999999999 0.9672599999999999 0.77315 1.54771 1.1604299999999999 0.9672599999999999 0.7736199999999999 -0.77409 2.5144999999999995 -1.35454 2.7081399999999998 -1.1609 0.58045 -1.9345199999999998 -0.19363999999999998 -1.9345199999999998 0.19363999999999998 -0.19316999999999998 0.5799799999999999 1.74135 0.58045 2.3218 0.38680999999999993 1.1609 -0.38680999999999993 3.2885899999999997 -2.7081399999999998 1.74088 -4.062679999999999 -1.3540699999999999 -1.1609 -1.74088 0 -2.3218 -3.8690399999999996 -0.19269999999999998 -0.38680999999999993 -0.5799799999999999 -0.38680999999999993 -0.5799799999999999 0Z" clip-rule="evenodd" stroke-width="1"></path><path fill="#000000" fill-rule="evenodd" d="M23.96671 20.69786c-2.90178 0.58045 -2.3218 2.90178 -0.9672599999999999 3.28906 1.3540699999999999 0.38680999999999993 2.12816 -1.54771 3.8690399999999996 -0.77409 0.19363999999999998 0.19363999999999998 0.58045 -0.19363999999999998 0.19316999999999998 -0.38680999999999993 -1.9345199999999998 -1.1609 -3.09495 0.58045 -3.8690399999999996 0.38680999999999993 -0.7736199999999999 -0.19363999999999998 -0.9672599999999999 -1.3540699999999999 0.96773 -1.9345199999999998 0.19316999999999998 -0.19363999999999998 0.19316999999999998 -0.7736199999999999 -0.19363999999999998 -0.58045Z" clip-rule="evenodd" stroke-width="1"></path><path fill="#000000" fill-rule="evenodd" d="M35.18702 19.5379c2.5144999999999995 2.12816 4.25585 -0.19363999999999998 5.4167499999999995 -0.38680999999999993 0.5799799999999999 -0.19363999999999998 1.5472399999999997 0.19316999999999998 1.9345199999999998 0.9672599999999999 0.19316999999999998 0.38680999999999993 0.19316999999999998 0.58045 0.38680999999999993 0.58045 0.58045 -0.19363999999999998 -0.38680999999999993 -2.7086099999999997 -2.3218 -2.3218 -1.74088 0.19363999999999998 -2.7081399999999998 2.3218 -5.028999999999999 0.77409 -0.38727999999999996 -0.19363999999999998 -0.77409 0.19363999999999998 -0.38727999999999996 0.38680999999999993Z" clip-rule="evenodd" stroke-width="1"></path><path fill="#000000" fill-rule="evenodd" d="M34.80021 14.507959999999999c-1.1609 0 -2.12816 0.19363999999999998 -2.9022499999999996 0.77409 -1.3536 0.9672599999999999 -1.5472399999999997 2.32133 0.77409 1.9345199999999998 1.74088 -0.38680999999999993 0 -0.19363999999999998 3.4822299999999995 -0.58045 2.5144999999999995 -0.38680999999999993 1.1609 -2.51497 -1.35454 -2.12816Zm-3.09542 1.9345199999999998c1.1609 -1.54771 4.64266 -1.9345199999999998 5.02994 -0.7736199999999999 -0.19363999999999998 0.19363999999999998 -0.58045 0.19316999999999998 -0.77409 0.19316999999999998 -3.2885899999999997 0.19363999999999998 -1.9345199999999998 0.19363999999999998 -3.6754 0.58045l-0.58045 0Z" clip-rule="evenodd" stroke-width="1"></path><path fill="#000000" fill-rule="evenodd" d="M17.969509999999996 17.603379999999998c-5.223109999999999 2.32133 -6.577179999999999 -0.38727999999999996 -9.478959999999999 -0.58045 -1.74135 -0.19363999999999998 -3.4822299999999995 1.3536 -4.062679999999999 2.90178 -0.58045 1.9345199999999998 0.19363999999999998 3.8690399999999996 0.58045 3.6754 0.19363999999999998 -0.19363999999999998 -0.19363999999999998 -0.38680999999999993 -0.19363999999999998 -1.1609 -0.38680999999999993 -2.7081399999999998 1.54771 -4.64266 3.4827 -4.449019999999999 2.90131 0.19316999999999998 3.8685699999999996 2.90178 9.6726 0.19316999999999998 0.5799799999999999 -0.38680999999999993 0.38680999999999993 -0.7736199999999999 0 -0.5799799999999999Z" clip-rule="evenodd" stroke-width="1"></path><path fill="#000000" fill-rule="evenodd" d="M23.96671 15.66839c-0.19363999999999998 -0.19316999999999998 -1.54771 -1.54771 -3.28906 -2.12769 -5.60992 -1.9345199999999998 -9.478959999999999 2.90178 -5.80356 3.09495 1.1609 0.19363999999999998 2.0181799999999996 -0.19316999999999998 3.5658899999999996 -0.19316999999999998 1.3540699999999999 0 1.85086 0.38680999999999993 2.81812 0.7736199999999999 1.9345199999999998 0.77409 3.4827 0 2.7086099999999997 -1.54771Zm-0.38727999999999996 0.38680999999999993c0.38727999999999996 0.77409 -0.58844 0.90005 -1.36206 0.90005 -0.9672599999999999 0 -1.7907 -0.90005 -3.30034 -0.90005 -1.20508 -0.19316999999999998 -4.53738 0.1081 -4.23611 -0.19316999999999998 1.54771 -2.3218 5.80356 -2.7086099999999997 8.89851 0.19316999999999998Z" clip-rule="evenodd" stroke-width="1"></path><path fill="#000000" fill-rule="evenodd" d="M16.58865 13.830689999999999c-0.4911499999999999 0.9822999999999998 -0.4911499999999999 1.9650699999999999 0.49162 2.1291 0.65471 0 1.80151 0.16402999999999998 2.1291 -0.32758999999999994 0.32758999999999994 -0.32758999999999994 0.6551799999999999 -1.1467999999999998 0.32758999999999994 -1.6379499999999998 -0.6551799999999999 -0.9822999999999998 -4.4227 0.49162 -2.9483099999999998 -0.16355999999999998Z" clip-rule="evenodd" stroke-width="1"></path><path fill="#000000" fill-rule="evenodd" d="M16.0975 14.32184c-0.32758999999999994 0.98277 -0.16402999999999998 1.80198 0.9822999999999998 1.96554 0.81921 0.16402999999999998 1.96554 0.16402999999999998 2.4571599999999996 -0.32758999999999994 0.4911499999999999 -0.4911499999999999 0.8187399999999999 -1.6379499999999998 0.32758999999999994 -2.1291 -0.49162 -0.6551799999999999 -1.47392 -0.4911499999999999 -2.2931299999999997 -0.32758999999999994 -0.4911499999999999 0 -1.1467999999999998 0.16402999999999998 -1.6379499999999998 0.32758999999999994 -0.16355999999999998 0.16402999999999998 0 0.4911499999999999 0.16402999999999998 0.4911499999999999Zm0.6551799999999999 -0.16355999999999998c-0.16402999999999998 0.32758999999999994 -0.32758999999999994 0.9822999999999998 0 1.3103599999999997 0.16355999999999998 0.16355999999999998 1.9650699999999999 0.32758999999999994 2.29266 0 0.16402999999999998 -0.16402999999999998 0.32758999999999994 -0.6551799999999999 0.32758999999999994 -0.98277 0 -0.32758999999999994 -0.6551799999999999 -0.32758999999999994 -0.9822999999999998 -0.32758999999999994 -0.16402999999999998 -0.16355999999999998 -1.4743899999999999 -0.16355999999999998 -1.6379499999999998 0Z" clip-rule="evenodd" stroke-width="1"></path><path fill="#000000" fill-rule="evenodd" d="M14.15123 22.49091c-0.38680999999999993 1.54771 -0.19363999999999998 1.54771 0 3.09542 0 0.38680999999999993 0.38680999999999993 0.38680999999999993 0.38680999999999993 0 0.38680999999999993 -1.9345199999999998 0.19363999999999998 -1.9345199999999998 0 -3.09542 0 -0.38680999999999993 -0.38680999999999993 -0.38680999999999993 -0.38680999999999993 0Z" clip-rule="evenodd" stroke-width="1"></path><path fill="#000000" fill-rule="evenodd" d="M20.87176 24.954649999999997c-0.58045 1.1609 -0.77409 1.54771 -0.77409 3.4822299999999995 0 0.38680999999999993 0.38680999999999993 0.38680999999999993 0.38680999999999993 0 0.38727999999999996 -1.35454 0.58045 -1.3540699999999999 0.77409 -3.4827 0 -0.19269999999999998 -0.38680999999999993 -0.38633999999999996 -0.38680999999999993 0Z" clip-rule="evenodd" stroke-width="1"></path><path fill="#000000" fill-rule="evenodd" d="M26.67485 26.50142c-0.19316999999999998 1.1609 -0.58045 1.74135 -0.38680999999999993 3.6758699999999997 0 0.38680999999999993 0.38680999999999993 0.38680999999999993 0.38680999999999993 0 0.19363999999999998 -1.3540699999999999 0.58045 -1.74088 0.38680999999999993 -3.6754 0.19363999999999998 -0.38727999999999996 -0.38680999999999993 -0.38727999999999996 -0.38680999999999993 0Z" clip-rule="evenodd" stroke-width="1"></path><path fill="#000000" fill-rule="evenodd" d="M30.930699999999998 26.695529999999998c-0.19269999999999998 1.5472399999999997 -0.19269999999999998 1.3536 0.19363999999999998 3.2885899999999997 0 0.38680999999999993 0.38727999999999996 0.38680999999999993 0.38727999999999996 0 0.19316999999999998 -1.54771 0.38680999999999993 -1.3540699999999999 -0.19363999999999998 -3.2885899999999997 0 -0.19363999999999998 -0.38680999999999993 -0.19363999999999998 -0.38680999999999993 0Z" clip-rule="evenodd" stroke-width="1"></path><path fill="#000000" fill-rule="evenodd" d="M35.18702 25.7278c0.19363999999999998 2.51544 0.38680999999999993 2.12863 0.7736199999999999 3.4827 0 0.38680999999999993 0.58045 0.19316999999999998 0.38727999999999996 0 0 -1.9345199999999998 -0.19363999999999998 -2.3218 -0.77409 -3.4827 0 -0.38680999999999993 -0.58045 -0.19269999999999998 -0.38680999999999993 0Z" clip-rule="evenodd" stroke-width="1"></path><path fill="#000000" fill-rule="evenodd" d="M37.89563 23.79375c0.38680999999999993 3.6754 0.5799799999999999 2.90178 0.7736199999999999 4.8363 0 0.38727999999999996 0.58045 0.19363999999999998 0.38680999999999993 0 0 -2.5144999999999995 -0.19316999999999998 -3.2885899999999997 -0.7736199999999999 -4.8363 0 -0.58045 -0.58045 -0.38680999999999993 -0.38680999999999993 0Z" clip-rule="evenodd" stroke-width="1"></path><path fill="#000000" fill-rule="evenodd" d="M22.22583 21.85923c-0.77409 0 -1.1609 0 -2.12816 0.58045 -0.38680999999999993 0.19363999999999998 -0.19363999999999998 0.58045 0.19363999999999998 0.38680999999999993 1.1609 -0.19316999999999998 0.9672599999999999 0 2.12769 -0.58045 0.19363999999999998 0 0.19363999999999998 -0.58045 -0.19316999999999998 -0.38680999999999993Z" clip-rule="evenodd" stroke-width="1"></path><path fill="#000000" fill-rule="evenodd" d="M13.9073 26.308719999999997c-0.58045 0.7736199999999999 -0.96773 1.1609 -0.96773 2.5144999999999995 0 0.38727999999999996 0.38727999999999996 0.38727999999999996 0.38727999999999996 0.19363999999999998 0.38680999999999993 -0.9672599999999999 0.38680999999999993 -0.38680999999999993 0.9672599999999999 -2.5144999999999995 0.19316999999999998 -0.19410999999999998 -0.19363999999999998 -0.38727999999999996 -0.38727999999999996 -0.19363999999999998Z" clip-rule="evenodd" stroke-width="1"></path><path fill="#000000" fill-rule="evenodd" d="M19.68125 29.56065c-0.58045 0.9672599999999999 -0.9672599999999999 1.54771 -0.9672599999999999 3.4827 0 0.38633999999999996 0.38680999999999993 0.38633999999999996 0.38680999999999993 0 0.58045 -1.54818 0.58045 -1.1609 0.9672599999999999 -3.28906 0.19316999999999998 -0.38680999999999993 -0.38680999999999993 -0.38680999999999993 -0.38680999999999993 -0.19363999999999998Z" clip-rule="evenodd" stroke-width="1"></path><path fill="#000000" fill-rule="evenodd" d="M25.901229999999998 32.30545c-0.38680999999999993 0.9672599999999999 -0.58045 1.3540699999999999 -0.19363999999999998 2.7081399999999998 0 0.38680999999999993 0.38680999999999993 0.38680999999999993 0.38680999999999993 0s0.19363999999999998 -0.9672599999999999 0.19363999999999998 -1.54771l0 -1.1609c0.19363999999999998 -0.38633999999999996 -0.38680999999999993 -0.38633999999999996 -0.38680999999999993 0Z" clip-rule="evenodd" stroke-width="1"></path><path fill="#000000" fill-rule="evenodd" d="M30.738 32.69273c-0.19410999999999998 0.7736199999999999 -0.38727999999999996 0.9672599999999999 0 2.32133 0 0.38680999999999993 0.5799799999999999 0.19363999999999998 0.38633999999999996 0 0.19363999999999998 -1.1609 0.38727999999999996 -1.1609 0 -2.3218 0.19363999999999998 -0.19269999999999998 -0.38680999999999993 -0.19269999999999998 -0.38680999999999993 0Z" clip-rule="evenodd" stroke-width="1"></path><path fill="#000000" fill-rule="evenodd" d="M35.573829999999994 31.91864c0 0.19363999999999998 -1.54771 2.51497 -1.54771 2.7086099999999997 -0.19316999999999998 0.19316999999999998 0.19363999999999998 0.5799799999999999 0.38680999999999993 0.38680999999999993 1.35454 -1.1609 1.54771 -1.9345199999999998 1.74135 -2.90178 0 -0.38680999999999993 -0.38680999999999993 -0.38727999999999996 -0.58045 -0.19363999999999998Z" clip-rule="evenodd" stroke-width="1"></path><path fill="#000000" fill-rule="evenodd" d="M38.86242 30.95185c0 0.19316999999999998 -1.74135 2.90178 -1.74135 3.09495 -0.19316999999999998 0.19363999999999998 0.19363999999999998 0.58045 0.38727999999999996 0.38680999999999993 1.3536 -1.3536 1.74088 -2.12769 1.9345199999999998 -3.2885899999999997 0 -0.38680999999999993 -0.38680999999999993 -0.58045 -0.58045 -0.19363999999999998Z" clip-rule="evenodd" stroke-width="1"></path><path fill="#000000" fill-rule="evenodd" d="M17.969509999999996 27.85596c-1.74088 -0.58045 -5.60992 -3.09542 -6.38401 -3.6754 -1.3536 -0.96773 -1.3536 -1.35454 -1.74088 -1.1609 0 0 -0.19363999999999998 0.19363999999999998 0 0.38680999999999993 1.9345199999999998 2.3218 5.02994 4.25585 7.93172 5.02994 0.38680999999999993 0 0.38680999999999993 -0.38680999999999993 0.19316999999999998 -0.58045Z" clip-rule="evenodd" stroke-width="1"></path></svg>